<svg xmlns="http://www.w3.org/2000/svg" viewBox="0 0 160 160">
<defs>
<linearGradient id="h" x1="0" y1="0" x2="1" y2="1"><stop offset="0" stop-color="#effeff" stop-opacity=".98"/><stop offset=".35" stop-color="#7cecff" stop-opacity=".92"/><stop offset=".72" stop-color="#2dc6ee" stop-opacity=".62"/><stop offset="1" stop-color="#0878a6" stop-opacity=".40"/></linearGradient>
<radialGradient id="r" cx=".32" cy=".25" r=".9"><stop offset="0" stop-color="#fff" stop-opacity=".95"/><stop offset=".22" stop-color="#b8f7ff" stop-opacity=".65"/><stop offset=".6" stop-color="#39c7ee" stop-opacity=".20"/><stop offset="1" stop-color="#0d82ad" stop-opacity=".03"/></radialGradient>
<filter id="g" x="-60%" y="-60%" width="220%" height="220%"><feGaussianBlur stdDeviation="4.5" result="b"/><feMerge><feMergeNode in="b"/><feMergeNode in="SourceGraphic"/></feMerge></filter>
</defs>
<ellipse cx="80" cy="134" rx="42" ry="8" fill="#45d9ff" opacity=".12"/>
<g filter="url(#g)"><path d="M45 46c13 0 20 10 35 25 15-15 22-25 35-25 13 0 24 10 24 23 0 17-17 28-34 33-10 4-15 10-15 21v13H70v-13c0-11-5-17-15-21-17-5-34-16-34-33 0-13 11-23 24-23Z" fill="url(#h)" stroke="#aaf6ff" stroke-width="2"/><path d="M24 48 12 33M136 48l12-15M80 75v51" fill="none" stroke="#d0fbff" stroke-width="3.5"/></g>
</svg>