<svg xmlns="http://www.w3.org/2000/svg" viewBox="0 0 160 160">
<defs>
<linearGradient id="h" x1="0" y1="0" x2="1" y2="1"><stop offset="0" stop-color="#effeff" stop-opacity=".98"/><stop offset=".35" stop-color="#7cecff" stop-opacity=".92"/><stop offset=".72" stop-color="#2dc6ee" stop-opacity=".62"/><stop offset="1" stop-color="#0878a6" stop-opacity=".40"/></linearGradient>
<radialGradient id="r" cx=".32" cy=".25" r=".9"><stop offset="0" stop-color="#fff" stop-opacity=".95"/><stop offset=".22" stop-color="#b8f7ff" stop-opacity=".65"/><stop offset=".6" stop-color="#39c7ee" stop-opacity=".20"/><stop offset="1" stop-color="#0d82ad" stop-opacity=".03"/></radialGradient>
<filter id="g" x="-60%" y="-60%" width="220%" height="220%"><feGaussianBlur stdDeviation="4.5" result="b"/><feMerge><feMergeNode in="b"/><feMergeNode in="SourceGraphic"/></feMerge></filter>
</defs>
<ellipse cx="80" cy="134" rx="42" ry="8" fill="#45d9ff" opacity=".12"/>
<g filter="url(#g)"><path d="M49 33c-17 0-28 13-28 31 0 23 13 40 30 40 10 0 16-8 16-19V58c0-16-7-25-18-25Z" fill="url(#h)" stroke="#aaf6ff" stroke-width="2"/><path d="M111 33c17 0 28 13 28 31 0 23-13 40-30 40-10 0-16-8-16-19V58c0-16 7-25 18-25Z" fill="url(#h)" stroke="#aaf6ff" stroke-width="2"/><path d="M61 88c2 14 8 20 19 27M99 88c-2 14-8 20-19 27" fill="none" stroke="#baf8ff" stroke-width="4" stroke-linecap="round"/><path d="M61 113c0-12 8-20 19-20s19 8 19 20c0 11-8 19-19 19s-19-8-19-19Z" fill="url(#r)" stroke="#aaf6ff" stroke-width="2"/><ellipse cx="42" cy="50" rx="8" ry="13" fill="#fff" opacity=".22"/><ellipse cx="118" cy="50" rx="8" ry="13" fill="#fff" opacity=".22"/></g>
</svg>