<svg xmlns="http://www.w3.org/2000/svg" viewBox="0 0 256 256">
  <defs>
    <radialGradient id="g1" cx="50%" cy="42%" r="62%">
      <stop offset="0%" stop-color="#8af6ff" stop-opacity="0.95"/>
      <stop offset="38%" stop-color="#39d3ff" stop-opacity="0.92"/>
      <stop offset="100%" stop-color="#0d6fff" stop-opacity="0.20"/>
    </radialGradient>
    <filter id="glow" x="-50%" y="-50%" width="200%" height="200%">
      <feGaussianBlur stdDeviation="7" result="b"/>
      <feMerge><feMergeNode in="b"/><feMergeNode in="SourceGraphic"/></feMerge>
    </filter>
  </defs>
  <g filter="url(#glow)" fill="url(#g1)" stroke="#cfffff" stroke-width="4" stroke-linecap="round" stroke-linejoin="round"><path d="M128 30c14 0 25 11 25 25 0 11-6 18-16 27-6 6-9 12-9 18s3 12 9 18c10 9 16 16 16 27 0 14-11 25-25 25s-25-11-25-25c0-11 6-18 16-27 6-6 9-12 9-18s-3-12-9-18c-10-9-16-16-16-27 0-14 11-25 25-25z" fill="none"/><circle cx="128" cy="100" r="8"/></g>
</svg>