<svg xmlns="http://www.w3.org/2000/svg" viewBox="0 0 384 384">
<defs>
  <linearGradient id="g" x1="0" y1="0" x2="1" y2="1">
    <stop offset="0" stop-color="#e9fdff" stop-opacity="0.96"/>
    <stop offset="0.23" stop-color="#68e8ff" stop-opacity="0.88"/>
    <stop offset="0.62" stop-color="#35bddd" stop-opacity="0.64"/>
    <stop offset="1" stop-color="#6b6dff" stop-opacity="0.56"/>
  </linearGradient>
  <radialGradient id="rg" cx="32%" cy="24%" r="80%">
    <stop offset="0" stop-color="#ffffff" stop-opacity="0.92"/>
    <stop offset="0.22" stop-color="#a9f4ff" stop-opacity="0.66"/>
    <stop offset="0.55" stop-color="#43c8ee" stop-opacity="0.28"/>
    <stop offset="1" stop-color="#113b74" stop-opacity="0.12"/>
  </radialGradient>
  <filter id="glow" x="-70%" y="-70%" width="240%" height="240%">
    <feGaussianBlur stdDeviation="10" result="b"/>
    <feColorMatrix in="b" type="matrix" values="0 0 0 0 0.15 0 0 0 0 0.78 0 0 0 0 1 0 0 0 0.9 0" result="gb"/>
    <feMerge><feMergeNode in="gb"/><feMergeNode in="SourceGraphic"/></feMerge>
  </filter>
  <filter id="soft" x="-40%" y="-40%" width="180%" height="180%"><feGaussianBlur stdDeviation="4"/></filter>
</defs>
<ellipse cx="192" cy="330" rx="105" ry="17" fill="#46d9ff" opacity="0.12" filter="url(#soft)"/>
<g filter="url(#glow)">
<path d="M146 57 L238 57 M163 57 L163 123 L117 242 C105 275 126 309 160 309 L224 309 C258 309 279 275 267 242 L221 123 L221 57" fill="url(#rg)" stroke="#d9fbff" stroke-width="5" stroke-linejoin="round"/>
<path d="M139 222 C176 208 211 208 247 222 L267 273 C275 293 261 310 240 310 L145 310 C124 310 110 293 118 273Z" fill="url(#g)" opacity="0.72"/>
<path d="M150 233 C177 226 210 226 237 234" fill="none" stroke="#fff" stroke-width="5" opacity="0.42"/>
</g>
</svg>