<svg xmlns="http://www.w3.org/2000/svg" viewBox="0 0 128 128"><defs><linearGradient id="coat" x1="0" y1="0" x2="1" y2="1"><stop stop-color="#5cf0ff"/><stop offset="1" stop-color="#1882c6"/></linearGradient></defs><circle cx="64" cy="64" r="59" fill="#eaf9fd" stroke="#b9e7f6" stroke-width="2"/><circle cx="64" cy="40" r="20" fill="#d8a98d"/><path d="M44 39c1-27 40-26 41-2-10-6-16-18-26-12-6 9-10 9-15 14" fill="#18445d"/><path d="M24 112V90c0-18 13-28 29-30l11 11 11-11c16 2 29 12 29 30v22" fill="url(#coat)" stroke="#17618b" stroke-width="3"/><path d="M53 61l11 10 11-10-6 49H59z" fill="#f7fcff"/><path d="M46 77v16c0 11 8 20 18 20s18-9 18-20V77" fill="none" stroke="#164d6a" stroke-width="5" stroke-linecap="round"/><circle cx="82" cy="78" r="7" fill="#f7fcff" stroke="#164d6a" stroke-width="4"/><path d="M36 94h14M43 87v14" stroke="#f7fcff" stroke-width="4" stroke-linecap="round"/></svg>